<svg width="398" height="136" viewBox="0 0 398 136" fill="none" xmlns="http://www.w3.org/2000/svg">
<path fill-rule="evenodd" clip-rule="evenodd" d="M1.87842 24.0702L41.1154 0.523907C41.6884 0.180645 42.3384 0 43 0C43.6617 0 44.3116 0.180645 44.8846 0.523907L84.1215 24.0702C84.6927 24.4138 85.1669 24.9071 85.4965 25.5006C85.8262 26.0942 85.9998 26.7671 86 27.4522V74.551C85.9998 75.236 85.8262 75.9091 85.4965 76.5026C85.1669 77.0961 84.6927 77.5893 84.1215 77.933L44.8846 101.476C44.3116 101.819 43.6617 102 43 102C42.3384 102 41.6884 101.819 41.1154 101.476L1.87842 77.933C1.30728 77.5893 0.833141 77.0961 0.503481 76.5026C0.17382 75.9091 0.000213111 75.236 0 74.551V27.4522C0.000213111 26.7671 0.17382 26.0942 0.503481 25.5006C0.833141 24.9071 1.30728 24.4138 1.87842 24.0702ZM39.396 58.4642L34.7371 79.0578H34.7216C34.6809 79.2444 34.6994 79.4397 34.7743 79.6146C34.8492 79.7894 34.9765 79.9344 35.1373 80.0281C35.2981 80.1218 35.4837 80.159 35.6666 80.1344C35.8494 80.1097 36.0197 80.0245 36.152 79.8913L58.1588 57.0889C58.2397 57.0065 58.3039 56.9082 58.3478 56.7998C58.3917 56.6913 58.4143 56.5749 58.4143 56.4573C58.4143 56.3397 58.3917 56.2234 58.3478 56.115C58.3039 56.0065 58.2397 55.9082 58.1588 55.8258L46.9314 44.4583C46.825 44.3518 46.7473 44.2182 46.7061 44.0708C46.6649 43.9234 46.6617 43.7674 46.6966 43.6183L51.3618 22.9734C51.4051 22.7858 51.3881 22.5886 51.3134 22.4119C51.2387 22.2353 51.1105 22.0888 50.9481 21.9948C50.7858 21.9007 50.5983 21.8644 50.4142 21.8911C50.23 21.9179 50.0594 22.0064 49.9283 22.1431L27.8474 44.9295C27.7664 45.0122 27.7021 45.1107 27.6582 45.2194C27.6143 45.3281 27.5917 45.4447 27.5917 45.5626C27.5917 45.6805 27.6143 45.7972 27.6582 45.9059C27.7021 46.0146 27.7664 46.1131 27.8474 46.1958L39.1613 57.6242C39.2665 57.7317 39.3432 57.8653 39.3843 58.0124C39.4255 58.1595 39.4295 58.315 39.396 58.4642Z" fill="url(#paint0_linear_443_421)"/>
<path d="M34.7372 79.0456L39.3962 58.452C39.4296 58.3028 39.4256 58.1473 39.3845 58.0002C39.3434 57.8531 39.2666 57.7194 39.1614 57.612L27.8476 46.1836C27.7666 46.1009 27.7022 46.0024 27.6583 45.8937C27.6144 45.785 27.5918 45.6683 27.5918 45.5504C27.5918 45.4325 27.6144 45.3159 27.6583 45.2072C27.7022 45.0985 27.7666 45 27.8476 44.9173L49.9284 22.1309C50.0596 21.9942 50.2302 21.9057 50.4143 21.8789C50.5984 21.8522 50.7859 21.8885 50.9483 21.9826C51.1106 22.0766 51.2389 22.223 51.3136 22.3997C51.3882 22.5764 51.4053 22.7736 51.362 22.9612L46.6968 43.6061C46.6618 43.7552 46.6651 43.9112 46.7063 44.0586C46.7475 44.2059 46.8251 44.3396 46.9316 44.4461L58.1589 55.8136C58.2398 55.896 58.3041 55.9943 58.348 56.1027C58.3918 56.2112 58.4144 56.3275 58.4144 56.4451C58.4144 56.5627 58.3918 56.6791 58.348 56.7876C58.3041 56.896 58.2398 56.9943 58.1589 57.0767L36.1522 79.8791C36.0198 80.0123 35.8496 80.0975 35.6667 80.1222C35.4839 80.1468 35.2982 80.1096 35.1374 80.0159C34.9767 79.9222 34.8493 79.7772 34.7744 79.6023C34.6995 79.4275 34.6811 79.2322 34.7218 79.0456H34.7372Z" fill="url(#paint1_linear_443_421)"/>
<path d="M34.7372 79.0456L39.3962 58.452C39.4296 58.3028 39.4256 58.1473 39.3845 58.0002C39.3434 57.8531 39.2666 57.7194 39.1614 57.612L27.8476 46.1836C27.7666 46.1009 27.7022 46.0024 27.6583 45.8937C27.6144 45.785 27.5918 45.6683 27.5918 45.5504C27.5918 45.4325 27.6144 45.3159 27.6583 45.2072C27.7022 45.0985 27.7666 45 27.8476 44.9173L49.9284 22.1309C50.0596 21.9942 50.2302 21.9057 50.4143 21.8789C50.5984 21.8522 50.7859 21.8885 50.9483 21.9826C51.1106 22.0766 51.2389 22.223 51.3136 22.3997C51.3882 22.5764 51.4053 22.7736 51.362 22.9612L46.6968 43.6061C46.6618 43.7552 46.6651 43.9112 46.7063 44.0586C46.7475 44.2059 46.8251 44.3396 46.9316 44.4461L58.1589 55.8136C58.2398 55.896 58.3041 55.9943 58.348 56.1027C58.3918 56.2112 58.4144 56.3275 58.4144 56.4451C58.4144 56.5627 58.3918 56.6791 58.348 56.7876C58.3041 56.896 58.2398 56.9943 58.1589 57.0767L36.1522 79.8791C36.0198 80.0123 35.8496 80.0975 35.6667 80.1222C35.4839 80.1468 35.2982 80.1096 35.1374 80.0159C34.9767 79.9222 34.8493 79.7772 34.7744 79.6023C34.6995 79.4275 34.6811 79.2322 34.7218 79.0456H34.7372Z" fill="white"/>
<path d="M371.867 50.9328H378.011L371.663 31H361.817L355.469 50.9328H361.425L362.315 47.7188H370.977L371.867 50.9328ZM363.83 42.2339L365.421 36.4849H367.871L369.462 42.2339H363.83Z" fill="#1C1C1C"/>
<path d="M397.914 36.4849V31H380.793V36.4849H386.606V45.4177H380.793V50.9328H397.914V45.4177H392.102V36.4849H397.914Z" fill="#1C1C1C"/>
<g clip-path="url(#clip0_443_421)">
<path fill-rule="evenodd" clip-rule="evenodd" d="M172.571 46.6116C171.707 45.8749 170.746 45.2625 169.713 44.7921C168.32 44.1679 166.807 43.859 165.282 43.8874C163.437 43.8763 161.612 44.2601 159.927 45.0133C158.3 45.7279 156.825 46.752 155.586 48.0289C154.343 49.3299 153.363 50.859 152.698 52.5323C152.016 54.2699 151.676 56.1234 151.696 57.9906C151.68 59.8836 152.02 61.7626 152.698 63.5294C153.341 65.2106 154.293 66.7554 155.506 68.083C156.715 69.4036 158.187 70.455 159.827 71.1691C161.561 71.9217 163.432 72.3051 165.322 72.2949C166.838 72.314 168.343 72.0233 169.744 71.4405C170.778 71.006 171.744 70.4236 172.611 69.7115V71.34C172.676 72.2398 172.551 73.1432 172.245 73.9917C171.94 74.8402 171.46 75.6148 170.836 76.2655C169.597 77.3945 167.968 77.9933 166.294 77.9342C164.844 77.9873 163.403 77.6763 162.103 77.0295C161.002 76.4175 160.126 75.4658 159.607 74.3154L159.496 74.0742H152.478C152.523 76.0994 153.287 78.0422 154.633 79.5526L154.684 79.623C156.133 81.1286 157.901 82.2896 159.857 83.0206C161.829 83.7643 163.917 84.1457 166.024 84.1465C170.135 84.1465 173.383 83.0005 175.669 80.7488C176.824 79.5753 177.727 78.1769 178.322 76.6399C178.917 75.1029 179.192 73.4599 179.128 71.8124V44.38H172.451L172.571 46.6116ZM170.937 63.5596C170.282 64.3036 169.475 64.8968 168.57 65.2986C167.671 65.6957 166.695 65.8879 165.713 65.8615C164.73 65.892 163.753 65.6996 162.855 65.2986C161.955 64.8948 161.151 64.3017 160.499 63.5596C159.125 62.0397 158.383 60.0512 158.423 58.0007C158.391 56.9922 158.557 55.9872 158.913 55.0435C159.27 54.0999 159.808 53.2361 160.499 52.5021C161.171 51.7922 161.984 51.2307 162.885 50.8536C163.781 50.4822 164.744 50.3008 165.713 50.3208C166.676 50.3127 167.631 50.5008 168.52 50.8737C169.414 51.2504 170.222 51.8043 170.897 52.5021C171.608 53.2256 172.165 54.0877 172.531 55.0353C172.909 55.9941 173.086 57.0206 173.052 58.051C173.069 60.0896 172.313 62.0586 170.937 63.5596Z" fill="#1C1C1C"/>
<path fill-rule="evenodd" clip-rule="evenodd" d="M199.111 43.8774C197.511 43.8523 195.931 44.2363 194.519 44.9932C193.565 45.5076 192.687 46.1539 191.912 46.9131V32.2369H185.235V72.4457H191.912V56.8246C191.821 55.1071 192.376 53.4178 193.466 52.09C193.999 51.5006 194.656 51.0378 195.39 50.7352C196.124 50.4326 196.916 50.2979 197.708 50.3409C198.481 50.2861 199.257 50.4119 199.974 50.7084C200.69 51.0049 201.329 51.4641 201.839 52.0498C202.818 53.258 203.336 54.7758 203.303 56.3321V72.4156H209.97V55.5178C209.97 51.8488 208.968 48.9537 206.962 46.9131C205.931 45.8941 204.703 45.0987 203.352 44.5764C202.001 44.0541 200.558 43.8162 199.111 43.8774Z" fill="#1C1C1C"/>
<path d="M146.582 32.2369H139.904V39.0825H146.582V32.2369Z" fill="#1C1C1C"/>
<path d="M146.592 44.37H139.914V72.4257H146.592V44.37Z" fill="#1C1C1C"/>
<path fill-rule="evenodd" clip-rule="evenodd" d="M116.954 32.2369H110.035V72.4357H134.61V65.7711H116.954V32.2369Z" fill="#1C1C1C"/>
<path fill-rule="evenodd" clip-rule="evenodd" d="M224.92 35.0616L218.764 37.3535L218.834 44.3901H212.878V50.4214H218.252V63.1073C218.252 66.1229 219.175 68.5355 220.999 70.1438C222.861 71.7563 225.258 72.61 227.717 72.5362C228.399 72.5362 229.021 72.5362 229.602 72.5362C230.184 72.5362 230.605 72.5362 231.016 72.4558H231.367V66.4748H228.62C228.128 66.5022 227.637 66.4269 227.176 66.2536C226.717 66.0772 226.297 65.8107 225.943 65.4695C225.58 65.0616 225.304 64.5838 225.131 64.0653C224.959 63.5468 224.894 62.9985 224.94 62.4539V50.3912H232.249V44.3599H224.92V35.0616Z" fill="#1C1C1C"/>
<path d="M275.995 32.2068H269.318V39.0724H275.995V32.2068Z" fill="#1C1C1C"/>
<path d="M244.612 51.1753H237.934V72.6769H244.612V51.1753Z" fill="#1C1C1C"/>
<path fill-rule="evenodd" clip-rule="evenodd" d="M333.358 44.3398V46.5814C332.492 45.858 331.534 45.253 330.51 44.7821C329.113 44.1686 327.603 43.8569 326.078 43.8673C324.233 43.8618 322.409 44.249 320.724 45.0032C319.096 45.7172 317.621 46.7414 316.383 48.0189C315.141 49.3209 314.161 50.8497 313.495 52.5223C312.817 54.2645 312.476 56.1205 312.492 57.9907C312.478 59.8803 312.818 61.7557 313.495 63.5194C314.131 65.2043 315.08 66.7529 316.292 68.0831C317.503 69.3951 318.971 70.4423 320.604 71.159C322.316 71.9306 324.171 72.3313 326.048 72.3351C327.564 72.3527 329.067 72.0656 330.47 71.4907C331.504 71.0563 332.47 70.4739 333.338 69.7618V71.3902C333.434 72.2572 333.339 73.1348 333.059 73.9608C332.779 74.7868 332.322 75.5411 331.719 76.1703C331.117 76.7995 330.383 77.2881 329.571 77.6016C328.759 77.9151 327.889 78.0458 327.021 77.9845C325.569 78.0459 324.125 77.7309 322.83 77.0697C321.74 76.4444 320.881 75.4814 320.383 74.3255L320.273 74.0943H313.254C313.297 76.0975 314.047 78.0207 315.37 79.5224V79.5928C315.387 79.6154 315.408 79.6356 315.43 79.6531C316.884 81.1533 318.651 82.3134 320.604 83.0508C322.581 83.7825 324.672 84.1569 326.78 84.1565C330.881 84.1565 334.12 83.0307 336.416 80.7689C337.608 79.6211 338.549 78.2378 339.181 76.7066C339.813 75.1753 340.121 73.5294 340.085 71.8727V44.3398H333.358ZM331.733 63.5596C331.079 64.3014 330.272 64.8914 329.367 65.2885C328.469 65.6886 327.492 65.8809 326.509 65.8515C325.53 65.8771 324.558 65.6848 323.662 65.2885C322.756 64.8934 321.948 64.3031 321.296 63.5596C319.924 62.0423 319.182 60.0578 319.22 58.0108C319.154 55.9728 319.897 53.9917 321.286 52.5022C321.958 51.7922 322.771 51.2307 323.672 50.8536C324.566 50.4764 325.53 50.2948 326.499 50.3208C327.468 50.3052 328.43 50.491 329.324 50.8664C330.218 51.2418 331.025 51.7988 331.693 52.5022C332.407 53.2203 332.963 54.0795 333.327 55.0253C333.701 55.9851 333.875 57.0113 333.839 58.0409C333.861 60.0817 333.108 62.0545 331.733 63.5596Z" fill="#1C1C1C"/>
<path fill-rule="evenodd" clip-rule="evenodd" d="M296.429 44.3297H289.752V51.1753H294.966C295.783 51.1785 296.592 51.3455 297.345 51.6666C298.097 51.9877 298.778 52.4563 299.347 53.045C300.501 54.2499 301.141 55.858 301.132 57.5282V72.6065H307.8V55.9903C307.809 52.9118 306.614 49.9524 304.471 47.7475C303.426 46.6682 302.176 45.8097 300.795 45.2227C299.414 44.6357 297.93 44.3321 296.429 44.3297Z" fill="#1C1C1C"/>
<path d="M289.752 51.1753H283.074V72.6769H289.752V51.1753Z" fill="#1C1C1C"/>
<path d="M275.995 44.3398H269.318V72.4156H275.995V44.3398Z" fill="#1C1C1C"/>
<path fill-rule="evenodd" clip-rule="evenodd" d="M251.29 44.3297H244.612V51.1753H249.786C250.605 51.1783 251.416 51.3452 252.17 51.6662C252.924 51.9873 253.606 52.456 254.177 53.045C255.339 54.2461 255.987 55.855 255.982 57.5282V72.6065H262.66V55.9903C262.665 52.9126 261.47 49.9548 259.331 47.7475C258.286 46.6691 257.036 45.8112 255.655 45.2243C254.274 44.6373 252.79 44.3332 251.29 44.3297Z" fill="#1C1C1C"/>
</g>
<path d="M17.9642 114.75H15.4543C15.3058 114.028 15.0461 113.394 14.675 112.847C14.3106 112.301 13.8653 111.842 13.339 111.471C12.8195 111.093 12.2426 110.81 11.6084 110.621C10.9742 110.432 10.3129 110.337 9.62473 110.337C8.36976 110.337 7.23287 110.654 6.21405 111.289C5.20197 111.923 4.39569 112.857 3.79519 114.092C3.20144 115.327 2.90456 116.842 2.90456 118.636C2.90456 120.431 3.20144 121.946 3.79519 123.181C4.39569 124.415 5.20197 125.35 6.21405 125.984C7.23287 126.618 8.36976 126.935 9.62473 126.935C10.3129 126.935 10.9742 126.841 11.6084 126.652C12.2426 126.463 12.8195 126.183 13.339 125.812C13.8653 125.434 14.3106 124.972 14.675 124.425C15.0461 123.872 15.3058 123.238 15.4543 122.523H17.9642C17.7753 123.582 17.4312 124.53 16.9319 125.367C16.4326 126.203 15.8119 126.915 15.0697 127.502C14.3275 128.082 13.4942 128.524 12.5699 128.828C11.6523 129.132 10.6705 129.283 9.62473 129.283C7.85698 129.283 6.28489 128.852 4.90847 127.988C3.53205 127.124 2.44913 125.896 1.65971 124.304C0.870295 122.712 0.475586 120.822 0.475586 118.636C0.475586 116.45 0.870295 114.561 1.65971 112.969C2.44913 111.376 3.53205 110.148 4.90847 109.285C6.28489 108.421 7.85698 107.989 9.62473 107.989C10.6705 107.989 11.6523 108.141 12.5699 108.445C13.4942 108.748 14.3275 109.194 15.0697 109.781C15.8119 110.361 16.4326 111.069 16.9319 111.906C17.4312 112.736 17.7753 113.684 17.9642 114.75Z" fill="#696969"/>
<path d="M21.6962 129V113.455H24.0038V115.803H24.1657C24.4491 115.033 24.9619 114.409 25.7041 113.93C26.4462 113.451 27.2829 113.212 28.214 113.212C28.3894 113.212 28.6087 113.215 28.8718 113.222C29.135 113.229 29.334 113.239 29.469 113.252V115.681C29.388 115.661 29.2025 115.631 28.9123 115.59C28.629 115.543 28.3287 115.519 28.0116 115.519C27.2559 115.519 26.5812 115.678 25.9874 115.995C25.4004 116.305 24.9349 116.737 24.5908 117.29C24.2534 117.837 24.0847 118.461 24.0847 119.163V129H21.6962Z" fill="#696969"/>
<path d="M38.3449 129.324C36.847 129.324 35.5549 128.993 34.4686 128.332C33.3891 127.664 32.5558 126.733 31.9688 125.539C31.3885 124.338 31.0984 122.941 31.0984 121.349C31.0984 119.756 31.3885 118.353 31.9688 117.139C32.5558 115.917 33.3722 114.966 34.418 114.284C35.4706 113.596 36.6986 113.252 38.102 113.252C38.9116 113.252 39.7112 113.387 40.5006 113.657C41.29 113.927 42.0086 114.365 42.6563 114.973C43.304 115.573 43.8202 116.369 44.2048 117.361C44.5894 118.353 44.7817 119.574 44.7817 121.025V122.037H32.7987V119.972H42.3527C42.3527 119.095 42.1772 118.313 41.8264 117.624C41.4823 116.936 40.9897 116.393 40.3488 115.995C39.7145 115.597 38.9656 115.398 38.102 115.398C37.1506 115.398 36.3275 115.634 35.6325 116.106C34.9443 116.572 34.4146 117.179 34.0435 117.928C33.6725 118.677 33.4869 119.48 33.4869 120.337V121.713C33.4869 122.887 33.6893 123.882 34.0942 124.699C34.5057 125.508 35.0759 126.126 35.8046 126.551C36.5332 126.969 37.38 127.178 38.3449 127.178C38.9723 127.178 39.5391 127.091 40.0451 126.915C40.5579 126.733 40.9999 126.463 41.371 126.105C41.7421 125.741 42.0288 125.289 42.2312 124.749L44.5388 125.397C44.2959 126.18 43.8877 126.868 43.3141 127.462C42.7406 128.049 42.0322 128.507 41.1888 128.838C40.3454 129.162 39.3974 129.324 38.3449 129.324Z" fill="#696969"/>
<path d="M52.9896 129.364C52.0045 129.364 51.1105 129.179 50.3076 128.808C49.5047 128.43 48.8671 127.887 48.3948 127.178C47.9225 126.463 47.6863 125.599 47.6863 124.587C47.6863 123.697 47.8617 122.975 48.2126 122.422C48.5634 121.862 49.0324 121.423 49.6194 121.106C50.2064 120.789 50.8541 120.553 51.5625 120.397C52.2777 120.235 52.9963 120.107 53.7183 120.013C54.6629 119.891 55.4287 119.8 56.0157 119.74C56.6094 119.672 57.0412 119.561 57.3111 119.406C57.5878 119.25 57.7261 118.98 57.7261 118.596V118.515C57.7261 117.516 57.4528 116.74 56.9063 116.187C56.3665 115.634 55.5467 115.357 54.447 115.357C53.3067 115.357 52.4127 115.607 51.765 116.106C51.1172 116.605 50.6618 117.139 50.3987 117.705L48.1316 116.896C48.5364 115.951 49.0762 115.216 49.7509 114.689C50.4324 114.156 51.1746 113.785 51.9775 113.576C52.7872 113.36 53.5833 113.252 54.366 113.252C54.8653 113.252 55.4388 113.313 56.0865 113.434C56.741 113.549 57.3719 113.789 57.9791 114.153C58.5931 114.517 59.1025 115.067 59.5073 115.803C59.9122 116.538 60.1146 117.523 60.1146 118.758V129H57.7261V126.895H57.6046C57.4427 127.232 57.1728 127.593 56.795 127.978C56.4171 128.362 55.9145 128.69 55.287 128.96C54.6595 129.229 53.8937 129.364 52.9896 129.364ZM53.3539 127.219C54.2985 127.219 55.0947 127.033 55.7424 126.662C56.3969 126.291 56.8894 125.812 57.22 125.225C57.5574 124.638 57.7261 124.021 57.7261 123.373V121.187C57.6249 121.308 57.4022 121.42 57.0581 121.521C56.7207 121.615 56.3294 121.7 55.8841 121.774C55.4455 121.841 55.0171 121.902 54.5988 121.956C54.1872 122.003 53.8532 122.044 53.5968 122.077C52.9761 122.158 52.3958 122.29 51.856 122.472C51.323 122.648 50.8912 122.914 50.5606 123.272C50.2367 123.623 50.0748 124.102 50.0748 124.709C50.0748 125.539 50.3818 126.166 50.9958 126.591C51.6165 127.01 52.4026 127.219 53.3539 127.219Z" fill="#696969"/>
<path d="M71.2347 113.455V115.479H63.1786V113.455H71.2347ZM65.5266 109.73H67.9151V124.547C67.9151 125.222 68.013 125.728 68.2086 126.065C68.411 126.396 68.6674 126.618 68.9778 126.733C69.2949 126.841 69.6289 126.895 69.9798 126.895C70.2429 126.895 70.4588 126.881 70.6275 126.854C70.7962 126.821 70.9311 126.794 71.0323 126.773L71.5181 128.919C71.3562 128.98 71.1301 129.04 70.84 129.101C70.5499 129.169 70.1822 129.202 69.7369 129.202C69.0621 129.202 68.4009 129.057 67.7532 128.767C67.1122 128.477 66.5792 128.035 66.1541 127.441C65.7358 126.848 65.5266 126.099 65.5266 125.195V109.73Z" fill="#696969"/>
<path d="M80.9759 129.324C79.5725 129.324 78.3412 128.99 77.2819 128.322C76.2293 127.654 75.4062 126.719 74.8124 125.518C74.2254 124.317 73.9319 122.914 73.9319 121.308C73.9319 119.689 74.2254 118.275 74.8124 117.068C75.4062 115.86 76.2293 114.922 77.2819 114.254C78.3412 113.586 79.5725 113.252 80.9759 113.252C82.3793 113.252 83.6073 113.586 84.6599 114.254C85.7192 114.922 86.5423 115.86 87.1293 117.068C87.7231 118.275 88.02 119.689 88.02 121.308C88.02 122.914 87.7231 124.317 87.1293 125.518C86.5423 126.719 85.7192 127.654 84.6599 128.322C83.6073 128.99 82.3793 129.324 80.9759 129.324ZM80.9759 127.178C82.042 127.178 82.9191 126.905 83.6073 126.358C84.2955 125.812 84.8049 125.093 85.1356 124.203C85.4662 123.312 85.6315 122.347 85.6315 121.308C85.6315 120.269 85.4662 119.301 85.1356 118.404C84.8049 117.506 84.2955 116.781 83.6073 116.228C82.9191 115.674 82.042 115.398 80.9759 115.398C79.9099 115.398 79.0328 115.674 78.3445 116.228C77.6563 116.781 77.1469 117.506 76.8163 118.404C76.4857 119.301 76.3204 120.269 76.3204 121.308C76.3204 122.347 76.4857 123.312 76.8163 124.203C77.1469 125.093 77.6563 125.812 78.3445 126.358C79.0328 126.905 79.9099 127.178 80.9759 127.178Z" fill="#696969"/>
<path d="M91.666 129V113.455H93.9735V115.803H94.1354C94.4188 115.033 94.9316 114.409 95.6738 113.93C96.416 113.451 97.2526 113.212 98.1837 113.212C98.3591 113.212 98.5784 113.215 98.8416 113.222C99.1047 113.229 99.3038 113.239 99.4387 113.252V115.681C99.3577 115.661 99.1722 115.631 98.8821 115.59C98.5987 115.543 98.2984 115.519 97.9813 115.519C97.2256 115.519 96.5509 115.678 95.9572 115.995C95.3702 116.305 94.9046 116.737 94.5605 117.29C94.2231 117.837 94.0545 118.461 94.0545 119.163V129H91.666Z" fill="#696969"/>
<path d="M113.281 116.936L111.136 117.543C111.001 117.186 110.802 116.838 110.539 116.501C110.282 116.157 109.931 115.873 109.486 115.651C109.041 115.428 108.471 115.317 107.776 115.317C106.824 115.317 106.032 115.536 105.397 115.975C104.77 116.406 104.456 116.956 104.456 117.624C104.456 118.218 104.672 118.687 105.104 119.031C105.536 119.375 106.21 119.662 107.128 119.891L109.435 120.458C110.825 120.795 111.861 121.312 112.543 122.007C113.224 122.695 113.565 123.582 113.565 124.668C113.565 125.559 113.308 126.355 112.796 127.057C112.29 127.759 111.581 128.312 110.67 128.717C109.759 129.121 108.7 129.324 107.492 129.324C105.907 129.324 104.594 128.98 103.555 128.292C102.516 127.603 101.858 126.598 101.582 125.276L103.849 124.709C104.065 125.545 104.473 126.173 105.073 126.591C105.681 127.01 106.473 127.219 107.452 127.219C108.565 127.219 109.449 126.983 110.103 126.51C110.765 126.031 111.095 125.458 111.095 124.79C111.095 124.25 110.906 123.798 110.528 123.434C110.151 123.063 109.57 122.786 108.788 122.604L106.197 121.996C104.773 121.659 103.727 121.136 103.059 120.428C102.398 119.713 102.068 118.819 102.068 117.746C102.068 116.869 102.314 116.093 102.806 115.418C103.306 114.743 103.984 114.214 104.841 113.829C105.704 113.444 106.683 113.252 107.776 113.252C109.314 113.252 110.522 113.59 111.399 114.264C112.283 114.939 112.91 115.83 113.281 116.936Z" fill="#696969"/>
<path d="M131.491 129.324C130.088 129.324 128.856 128.99 127.797 128.322C126.744 127.654 125.921 126.719 125.328 125.518C124.741 124.317 124.447 122.914 124.447 121.308C124.447 119.689 124.741 118.275 125.328 117.068C125.921 115.86 126.744 114.922 127.797 114.254C128.856 113.586 130.088 113.252 131.491 113.252C132.894 113.252 134.122 113.586 135.175 114.254C136.234 114.922 137.057 115.86 137.644 117.068C138.238 118.275 138.535 119.689 138.535 121.308C138.535 122.914 138.238 124.317 137.644 125.518C137.057 126.719 136.234 127.654 135.175 128.322C134.122 128.99 132.894 129.324 131.491 129.324ZM131.491 127.178C132.557 127.178 133.434 126.905 134.122 126.358C134.811 125.812 135.32 125.093 135.651 124.203C135.981 123.312 136.147 122.347 136.147 121.308C136.147 120.269 135.981 119.301 135.651 118.404C135.32 117.506 134.811 116.781 134.122 116.228C133.434 115.674 132.557 115.398 131.491 115.398C130.425 115.398 129.548 115.674 128.86 116.228C128.171 116.781 127.662 117.506 127.331 118.404C127.001 119.301 126.836 120.269 126.836 121.308C126.836 122.347 127.001 123.312 127.331 124.203C127.662 125.093 128.171 125.812 128.86 126.358C129.548 126.905 130.425 127.178 131.491 127.178Z" fill="#696969"/>
<path d="M149.104 113.455V115.479H140.724V113.455H149.104ZM143.234 129V111.309C143.234 110.418 143.443 109.676 143.861 109.082C144.279 108.489 144.823 108.043 145.491 107.746C146.159 107.45 146.864 107.301 147.606 107.301C148.193 107.301 148.672 107.348 149.043 107.443C149.414 107.537 149.691 107.625 149.873 107.706L149.185 109.771C149.063 109.73 148.895 109.68 148.679 109.619C148.469 109.558 148.193 109.528 147.849 109.528C147.059 109.528 146.489 109.727 146.138 110.125C145.794 110.523 145.622 111.107 145.622 111.876V129H143.234Z" fill="#696969"/>
<path d="M160.791 129V108.273H167.794C169.42 108.273 170.749 108.566 171.782 109.153C172.821 109.733 173.59 110.52 174.089 111.511C174.589 112.503 174.838 113.61 174.838 114.831C174.838 116.052 174.589 117.162 174.089 118.161C173.597 119.159 172.834 119.955 171.802 120.549C170.77 121.136 169.447 121.43 167.835 121.43H162.815V119.203H167.754C168.867 119.203 169.761 119.011 170.436 118.626C171.11 118.242 171.6 117.722 171.903 117.068C172.214 116.406 172.369 115.661 172.369 114.831C172.369 114.001 172.214 113.259 171.903 112.604C171.6 111.95 171.107 111.437 170.426 111.066C169.744 110.688 168.84 110.499 167.713 110.499H163.301V129H160.791Z" fill="#696969"/>
<path d="M180.096 134.83C179.691 134.83 179.33 134.796 179.013 134.728C178.696 134.668 178.477 134.607 178.355 134.546L178.962 132.441C179.543 132.59 180.055 132.643 180.501 132.603C180.946 132.563 181.341 132.363 181.685 132.006C182.036 131.655 182.356 131.085 182.646 130.295L183.092 129.081L177.343 113.455H179.934L184.225 125.842H184.387L188.678 113.455H191.269L184.671 131.267C184.374 132.07 184.006 132.735 183.567 133.261C183.129 133.794 182.619 134.189 182.039 134.445C181.466 134.701 180.818 134.83 180.096 134.83Z" fill="#696969"/>
<path d="M192.638 110.499V108.273H208.184V110.499H201.666V129H199.156V110.499H192.638Z" fill="#696969"/>
<path d="M215.794 129.324C214.391 129.324 213.16 128.99 212.1 128.322C211.048 127.654 210.225 126.719 209.631 125.518C209.044 124.317 208.75 122.914 208.75 121.308C208.75 119.689 209.044 118.275 209.631 117.068C210.225 115.86 211.048 114.922 212.1 114.254C213.16 113.586 214.391 113.252 215.794 113.252C217.198 113.252 218.426 113.586 219.478 114.254C220.538 114.922 221.361 115.86 221.948 117.068C222.541 118.275 222.838 119.689 222.838 121.308C222.838 122.914 222.541 124.317 221.948 125.518C221.361 126.719 220.538 127.654 219.478 128.322C218.426 128.99 217.198 129.324 215.794 129.324ZM215.794 127.178C216.86 127.178 217.737 126.905 218.426 126.358C219.114 125.812 219.623 125.093 219.954 124.203C220.285 123.312 220.45 122.347 220.45 121.308C220.45 120.269 220.285 119.301 219.954 118.404C219.623 117.506 219.114 116.781 218.426 116.228C217.737 115.674 216.86 115.398 215.794 115.398C214.728 115.398 213.851 115.674 213.163 116.228C212.475 116.781 211.965 117.506 211.635 118.404C211.304 119.301 211.139 120.269 211.139 121.308C211.139 122.347 211.304 123.312 211.635 124.203C211.965 125.093 212.475 125.812 213.163 126.358C213.851 126.905 214.728 127.178 215.794 127.178Z" fill="#696969"/>
<path d="M226.484 129V113.455H228.792V115.803H228.954C229.237 115.033 229.75 114.409 230.492 113.93C231.234 113.451 232.071 113.212 233.002 113.212C233.178 113.212 233.397 113.215 233.66 113.222C233.923 113.229 234.122 113.239 234.257 113.252V115.681C234.176 115.661 233.991 115.631 233.7 115.59C233.417 115.543 233.117 115.519 232.8 115.519C232.044 115.519 231.369 115.678 230.776 115.995C230.189 116.305 229.723 116.737 229.379 117.29C229.042 117.837 228.873 118.461 228.873 119.163V129H226.484Z" fill="#696969"/>
<path d="M242.931 129.324C241.473 129.324 240.218 128.98 239.166 128.292C238.113 127.603 237.303 126.655 236.737 125.448C236.17 124.24 235.886 122.86 235.886 121.308C235.886 119.729 236.177 118.336 236.757 117.128C237.344 115.914 238.16 114.966 239.206 114.284C240.259 113.596 241.487 113.252 242.89 113.252C243.983 113.252 244.968 113.455 245.845 113.859C246.722 114.264 247.441 114.831 248.001 115.56C248.561 116.288 248.909 117.139 249.043 118.11H246.655C246.473 117.402 246.068 116.774 245.44 116.228C244.82 115.674 243.983 115.398 242.931 115.398C241.999 115.398 241.183 115.641 240.481 116.126C239.786 116.605 239.243 117.284 238.852 118.161C238.467 119.031 238.275 120.053 238.275 121.227C238.275 122.428 238.464 123.474 238.842 124.365C239.226 125.255 239.766 125.947 240.461 126.439C241.163 126.932 241.986 127.178 242.931 127.178C243.551 127.178 244.115 127.07 244.621 126.854C245.127 126.639 245.555 126.328 245.906 125.923C246.257 125.518 246.507 125.033 246.655 124.466H249.043C248.909 125.384 248.575 126.21 248.042 126.946C247.515 127.674 246.817 128.254 245.947 128.686C245.083 129.111 244.078 129.324 242.931 129.324Z" fill="#696969"/>
<path d="M254.924 119.648V129H252.535V108.273H254.924V115.884H255.126C255.49 115.081 256.037 114.443 256.766 113.971C257.501 113.492 258.479 113.252 259.701 113.252C260.76 113.252 261.688 113.465 262.484 113.89C263.28 114.308 263.897 114.952 264.336 115.823C264.781 116.686 265.004 117.786 265.004 119.122V129H262.615V119.284C262.615 118.049 262.295 117.095 261.654 116.42C261.02 115.738 260.139 115.398 259.012 115.398C258.23 115.398 257.528 115.563 256.907 115.894C256.293 116.224 255.807 116.707 255.45 117.341C255.099 117.975 254.924 118.744 254.924 119.648Z" fill="#696969"/>
<path d="M277.713 129V108.273H280.223V126.773H289.858V129H277.713Z" fill="#696969"/>
<path d="M293.42 129V113.455H295.809V129H293.42ZM294.635 110.864C294.169 110.864 293.768 110.705 293.43 110.388C293.1 110.071 292.935 109.69 292.935 109.244C292.935 108.799 293.1 108.418 293.43 108.101C293.768 107.784 294.169 107.625 294.635 107.625C295.1 107.625 295.499 107.784 295.829 108.101C296.166 108.418 296.335 108.799 296.335 109.244C296.335 109.69 296.166 110.071 295.829 110.388C295.499 110.705 295.1 110.864 294.635 110.864Z" fill="#696969"/>
<path d="M306.458 135.153C305.305 135.153 304.313 135.005 303.483 134.708C302.653 134.418 301.961 134.033 301.408 133.554C300.862 133.082 300.426 132.576 300.103 132.036L302.005 130.7C302.221 130.984 302.494 131.308 302.825 131.672C303.156 132.043 303.608 132.363 304.181 132.633C304.762 132.91 305.521 133.048 306.458 133.048C307.713 133.048 308.749 132.745 309.565 132.137C310.382 131.53 310.79 130.579 310.79 129.283V126.126H310.588C310.412 126.409 310.163 126.76 309.839 127.178C309.522 127.59 309.063 127.958 308.462 128.281C307.869 128.599 307.066 128.757 306.054 128.757C304.799 128.757 303.672 128.46 302.673 127.866C301.681 127.273 300.895 126.409 300.315 125.276C299.742 124.142 299.455 122.766 299.455 121.146C299.455 119.554 299.735 118.167 300.295 116.987C300.855 115.799 301.634 114.882 302.633 114.234C303.631 113.579 304.785 113.252 306.094 113.252C307.106 113.252 307.909 113.421 308.503 113.758C309.103 114.089 309.562 114.467 309.879 114.892C310.203 115.31 310.453 115.654 310.628 115.924H310.871V113.455H313.179V129.445C313.179 130.781 312.875 131.868 312.268 132.704C311.667 133.548 310.858 134.165 309.839 134.556C308.827 134.954 307.7 135.153 306.458 135.153ZM306.377 126.612C307.336 126.612 308.145 126.392 308.806 125.954C309.468 125.515 309.97 124.884 310.314 124.061C310.659 123.238 310.831 122.253 310.831 121.106C310.831 119.986 310.662 118.997 310.325 118.14C309.987 117.284 309.488 116.612 308.827 116.126C308.165 115.641 307.349 115.398 306.377 115.398C305.365 115.398 304.522 115.654 303.847 116.167C303.179 116.68 302.677 117.368 302.339 118.232C302.009 119.095 301.843 120.053 301.843 121.106C301.843 122.185 302.012 123.14 302.349 123.97C302.694 124.793 303.2 125.441 303.867 125.913C304.542 126.379 305.379 126.612 306.377 126.612Z" fill="#696969"/>
<path d="M319.939 119.648V129H317.551V108.273H319.939V115.884H320.142C320.506 115.081 321.052 114.443 321.781 113.971C322.517 113.492 323.495 113.252 324.716 113.252C325.776 113.252 326.703 113.465 327.499 113.89C328.296 114.308 328.913 114.952 329.352 115.823C329.797 116.686 330.019 117.786 330.019 119.122V129H327.631V119.284C327.631 118.049 327.311 117.095 326.67 116.42C326.035 115.738 325.155 115.398 324.028 115.398C323.245 115.398 322.544 115.563 321.923 115.894C321.309 116.224 320.823 116.707 320.466 117.341C320.115 117.975 319.939 118.744 319.939 119.648Z" fill="#696969"/>
<path d="M341.15 113.455V115.479H333.094V113.455H341.15ZM335.442 109.73H337.83V124.547C337.83 125.222 337.928 125.728 338.124 126.065C338.326 126.396 338.582 126.618 338.893 126.733C339.21 126.841 339.544 126.895 339.895 126.895C340.158 126.895 340.374 126.881 340.543 126.854C340.711 126.821 340.846 126.794 340.947 126.773L341.433 128.919C341.271 128.98 341.045 129.04 340.755 129.101C340.465 129.169 340.097 129.202 339.652 129.202C338.977 129.202 338.316 129.057 337.668 128.767C337.027 128.477 336.494 128.035 336.069 127.441C335.651 126.848 335.442 126.099 335.442 125.195V109.73Z" fill="#696969"/>
<path d="M347.131 119.648V129H344.743V113.455H347.05V115.884H347.253C347.617 115.094 348.17 114.46 348.912 113.981C349.655 113.495 350.613 113.252 351.787 113.252C352.839 113.252 353.76 113.468 354.55 113.9C355.339 114.325 355.953 114.973 356.392 115.843C356.83 116.707 357.049 117.8 357.049 119.122V129H354.661V119.284C354.661 118.063 354.344 117.112 353.71 116.43C353.075 115.742 352.205 115.398 351.098 115.398C350.336 115.398 349.655 115.563 349.054 115.894C348.46 116.224 347.991 116.707 347.647 117.341C347.303 117.975 347.131 118.744 347.131 119.648Z" fill="#696969"/>
<path d="M361.414 129V113.455H363.803V129H361.414ZM362.629 110.864C362.163 110.864 361.762 110.705 361.424 110.388C361.094 110.071 360.928 109.69 360.928 109.244C360.928 108.799 361.094 108.418 361.424 108.101C361.762 107.784 362.163 107.625 362.629 107.625C363.094 107.625 363.492 107.784 363.823 108.101C364.16 108.418 364.329 108.799 364.329 109.244C364.329 109.69 364.16 110.071 363.823 110.388C363.492 110.705 363.094 110.864 362.629 110.864Z" fill="#696969"/>
<path d="M370.566 119.648V129H368.177V113.455H370.485V115.884H370.687C371.051 115.094 371.605 114.46 372.347 113.981C373.089 113.495 374.047 113.252 375.221 113.252C376.274 113.252 377.195 113.468 377.984 113.9C378.774 114.325 379.388 114.973 379.826 115.843C380.265 116.707 380.484 117.8 380.484 119.122V129H378.096V119.284C378.096 118.063 377.778 117.112 377.144 116.43C376.51 115.742 375.64 115.398 374.533 115.398C373.771 115.398 373.089 115.563 372.489 115.894C371.895 116.224 371.426 116.707 371.082 117.341C370.738 117.975 370.566 118.744 370.566 119.648Z" fill="#696969"/>
<path d="M391.123 135.153C389.97 135.153 388.978 135.005 388.148 134.708C387.318 134.418 386.626 134.033 386.073 133.554C385.527 133.082 385.091 132.576 384.768 132.036L386.67 130.7C386.886 130.984 387.16 131.308 387.49 131.672C387.821 132.043 388.273 132.363 388.846 132.633C389.427 132.91 390.186 133.048 391.123 133.048C392.378 133.048 393.414 132.745 394.23 132.137C395.047 131.53 395.455 130.579 395.455 129.283V126.126H395.253C395.077 126.409 394.828 126.76 394.504 127.178C394.187 127.59 393.728 127.958 393.127 128.281C392.534 128.599 391.731 128.757 390.719 128.757C389.464 128.757 388.337 128.46 387.338 127.866C386.346 127.273 385.56 126.409 384.98 125.276C384.407 124.142 384.12 122.766 384.12 121.146C384.12 119.554 384.4 118.167 384.96 116.987C385.52 115.799 386.299 114.882 387.298 114.234C388.296 113.579 389.45 113.252 390.759 113.252C391.771 113.252 392.574 113.421 393.168 113.758C393.768 114.089 394.227 114.467 394.544 114.892C394.868 115.31 395.118 115.654 395.293 115.924H395.536V113.455H397.844V129.445C397.844 130.781 397.54 131.868 396.933 132.704C396.332 133.548 395.523 134.165 394.504 134.556C393.492 134.954 392.365 135.153 391.123 135.153ZM391.042 126.612C392.001 126.612 392.81 126.392 393.471 125.954C394.133 125.515 394.635 124.884 394.979 124.061C395.324 123.238 395.496 122.253 395.496 121.106C395.496 119.986 395.327 118.997 394.99 118.14C394.652 117.284 394.153 116.612 393.492 116.126C392.83 115.641 392.014 115.398 391.042 115.398C390.03 115.398 389.187 115.654 388.512 116.167C387.844 116.68 387.342 117.368 387.004 118.232C386.674 119.095 386.508 120.053 386.508 121.106C386.508 122.185 386.677 123.14 387.014 123.97C387.359 124.793 387.865 125.441 388.533 125.913C389.207 126.379 390.044 126.612 391.042 126.612Z" fill="#696969"/>
<defs>
<linearGradient id="paint0_linear_443_421" x1="61.5461" y1="31.3445" x2="-43.7332" y2="125.963" gradientUnits="userSpaceOnUse">
<stop stop-color="#792EE5"/>
<stop offset="1" stop-color="#428FF4"/>
</linearGradient>
<linearGradient id="paint1_linear_443_421" x1="49.6501" y1="39.7734" x2="-2.10098" y2="68.9583" gradientUnits="userSpaceOnUse">
<stop stop-color="#792EE5"/>
<stop offset="1" stop-color="#428FF4"/>
</linearGradient>
<clipPath id="clip0_443_421">
<rect width="230" height="52" fill="white" transform="translate(110.035 32.2068)"/>
</clipPath>
</defs>
</svg>
